# 3ds Max Wavefront OBJ Exporter v0.97b - (c)2007 guruware
# File Created: 11.04.2017 19:19:12

mtllib 1.mtl

#
# object Box001
#

v  -29.5698 -22.0509 -0.0000
v  -29.5698 7.9491 0.0000
v  30.4302 7.9491 0.0000
v  30.4302 -22.0509 -0.0000
v  -29.5698 -22.0509 50.0000
v  30.4302 -22.0509 50.0000
v  30.4302 7.9491 50.0000
v  -29.5698 7.9491 50.0000
# 8 vertices

vn 0.0000 0.0000 -1.0000
vn 0.0000 -0.0000 1.0000
vn 0.0000 -1.0000 -0.0000
vn 1.0000 0.0000 -0.0000
vn 0.0000 1.0000 0.0000
vn -1.0000 0.0000 -0.0000
# 6 vertex normals

vt 0.4288 0.5090 0.0000
vt 0.6693 0.5090 0.0000
vt 0.6693 0.9900 0.0000
vt 0.4288 0.9900 0.0000
vt 0.6693 0.0100 0.0000
vt 0.6693 0.4910 0.0000
vt 0.4288 0.4910 0.0000
vt 0.4288 0.0100 0.0000
vt 0.4108 0.5090 0.0000
vt 0.4108 0.9900 0.0000
vt 0.0100 0.9900 0.0000
vt 0.0100 0.5090 0.0000
vt 0.9278 0.8387 0.0000
vt 0.6873 0.8387 0.0000
vt 0.6873 0.4378 0.0000
vt 0.9278 0.4378 0.0000
vt 0.4108 0.0100 0.0000
vt 0.4108 0.4910 0.0000
vt 0.0100 0.4910 0.0000
vt 0.0100 0.0100 0.0000
vt 0.9278 0.4108 0.0000
vt 0.6873 0.4108 0.0000
vt 0.6873 0.0100 0.0000
vt 0.9278 0.0100 0.0000
# 24 texture coords

g Box001
usemtl Material__35
s 2
f 1/1/1 2/2/1 3/3/1 4/4/1 
s 4
f 5/5/2 6/6/2 7/7/2 8/8/2 
s 8
f 1/9/3 4/10/3 6/11/3 5/12/3 
s 16
f 4/13/4 3/14/4 7/15/4 6/16/4 
s 32
f 3/17/5 2/18/5 8/19/5 7/20/5 
s 64
f 2/21/6 1/22/6 5/23/6 8/24/6 
# 6 polygons

