# 3ds Max Wavefront OBJ Exporter v0.97b - (c)2007 guruware
# File Created: 16.04.2017 21:01:58

mtllib 15.mtl

#
# object Box016
#

v  282.9553 -17.6185 -42.5640
v  282.9553 -17.6185 -74.9535
v  301.7863 -17.6185 -74.9535
v  301.7863 -17.6185 -42.5640
v  282.9553 6.4852 -42.5640
v  301.7863 6.4852 -42.5640
v  301.7863 6.4852 -74.9535
v  282.9553 6.4852 -74.9535
# 8 vertices

vn 0.0000 -1.0000 -0.0000
vn 0.0000 1.0000 -0.0000
vn 0.0000 0.0000 1.0000
vn 1.0000 0.0000 -0.0000
vn 0.0000 0.0000 -1.0000
vn -1.0000 0.0000 -0.0000
# 6 vertex normals

vt 0.9723 0.0100 0.0000
vt 0.9723 0.4910 0.0000
vt 0.6927 0.4910 0.0000
vt 0.6927 0.0100 0.0000
vt 0.6656 0.4910 0.0000
vt 0.3860 0.4910 0.0000
vt 0.3860 0.0100 0.0000
vt 0.6656 0.0100 0.0000
vt 0.6656 0.8760 0.0000
vt 0.3860 0.8760 0.0000
vt 0.3860 0.5180 0.0000
vt 0.6656 0.5180 0.0000
vt 0.3679 0.5090 0.0000
vt 0.3679 0.9900 0.0000
vt 0.0100 0.9900 0.0000
vt 0.0100 0.5090 0.0000
vt 0.9723 0.8760 0.0000
vt 0.6927 0.8760 0.0000
vt 0.6927 0.5180 0.0000
vt 0.9723 0.5180 0.0000
vt 0.3679 0.0100 0.0000
vt 0.3679 0.4910 0.0000
vt 0.0100 0.4910 0.0000
vt 0.0100 0.0100 0.0000
# 24 texture coords

g Box016
usemtl Material__66
s 2
f 1/1/1 2/2/1 3/3/1 4/4/1 
s 4
f 5/5/2 6/6/2 7/7/2 8/8/2 
s 8
f 1/9/3 4/10/3 6/11/3 5/12/3 
s 16
f 4/13/4 3/14/4 7/15/4 6/16/4 
s 32
f 3/17/5 2/18/5 8/19/5 7/20/5 
s 64
f 2/21/6 1/22/6 5/23/6 8/24/6 
# 6 polygons

