# 3ds Max Wavefront OBJ Exporter v0.97b - (c)2007 guruware
# File Created: 16.04.2017 21:24:58

mtllib 16.mtl

#
# object Box014
#

v  206.8777 -19.5016 -10.0592
v  206.8777 -19.5016 -37.9292
v  272.4099 -19.5016 -37.9292
v  272.4099 -19.5016 -10.0592
v  206.8777 12.6649 -10.0592
v  272.4099 12.6649 -10.0592
v  272.4099 12.6649 -37.9292
v  206.8777 12.6649 -37.9292
# 8 vertices

vn 0.0000 -1.0000 -0.0000
vn 0.0000 1.0000 -0.0000
vn 0.0000 0.0000 1.0000
vn 1.0000 0.0000 -0.0000
vn 0.0000 0.0000 -1.0000
vn -1.0000 0.0000 -0.0000
# 6 vertex normals

vt 0.5082 0.7781 0.0000
vt 0.5082 0.9900 0.0000
vt 0.0100 0.9900 0.0000
vt 0.0100 0.7781 0.0000
vt 0.5082 0.7557 0.0000
vt 0.0100 0.7557 0.0000
vt 0.0100 0.5439 0.0000
vt 0.5082 0.5439 0.0000
vt 0.5082 0.5215 0.0000
vt 0.0100 0.5215 0.0000
vt 0.0100 0.2769 0.0000
vt 0.5082 0.2769 0.0000
vt 0.5306 0.4888 0.0000
vt 0.5306 0.2769 0.0000
vt 0.7751 0.2769 0.0000
vt 0.7751 0.4888 0.0000
vt 0.5082 0.2545 0.0000
vt 0.0100 0.2545 0.0000
vt 0.0100 0.0100 0.0000
vt 0.5082 0.0100 0.0000
vt 0.5306 0.2219 0.0000
vt 0.5306 0.0100 0.0000
vt 0.7751 0.0100 0.0000
vt 0.7751 0.2219 0.0000
# 24 texture coords

g Box014
usemtl Material__67
s 2
f 1/1/1 2/2/1 3/3/1 4/4/1 
s 4
f 5/5/2 6/6/2 7/7/2 8/8/2 
s 8
f 1/9/3 4/10/3 6/11/3 5/12/3 
s 16
f 4/13/4 3/14/4 7/15/4 6/16/4 
s 32
f 3/17/5 2/18/5 8/19/5 7/20/5 
s 64
f 2/21/6 1/22/6 5/23/6 8/24/6 
# 6 polygons

