# 3ds Max Wavefront OBJ Exporter v0.97b - (c)2007 guruware
# File Created: 11.04.2017 19:19:22

mtllib 2.mtl

#
# object Box002
#

v  30.4133 -12.8140 28.4158
v  30.4133 7.1860 28.4159
v  70.4133 7.1860 28.4159
v  70.4133 -12.8140 28.4158
v  30.4133 -12.8140 48.4158
v  70.4133 -12.8140 48.4158
v  70.4133 7.1860 48.4159
v  30.4133 7.1860 48.4159
# 8 vertices

vn 0.0000 0.0000 -1.0000
vn 0.0000 -0.0000 1.0000
vn 0.0000 -1.0000 -0.0000
vn 1.0000 0.0000 -0.0000
vn 0.0000 1.0000 0.0000
vn -1.0000 0.0000 -0.0000
# 6 vertex normals

vt 0.4886 0.5341 0.0000
vt 0.4886 0.7734 0.0000
vt 0.0100 0.7734 0.0000
vt 0.0100 0.5341 0.0000
vt 0.4886 0.2493 0.0000
vt 0.0100 0.2493 0.0000
vt 0.0100 0.0100 0.0000
vt 0.4886 0.0100 0.0000
vt 0.9900 0.2493 0.0000
vt 0.5114 0.2493 0.0000
vt 0.5114 0.0100 0.0000
vt 0.9900 0.0100 0.0000
vt 0.5114 0.5341 0.0000
vt 0.7507 0.5341 0.0000
vt 0.7507 0.7734 0.0000
vt 0.5114 0.7734 0.0000
vt 0.4886 0.5114 0.0000
vt 0.0100 0.5114 0.0000
vt 0.0100 0.2720 0.0000
vt 0.4886 0.2720 0.0000
vt 0.5114 0.2720 0.0000
vt 0.7507 0.2720 0.0000
vt 0.7507 0.5114 0.0000
vt 0.5114 0.5114 0.0000
# 24 texture coords

g Box002
usemtl Material__38
s 2
f 1/1/1 2/2/1 3/3/1 4/4/1 
s 4
f 5/5/2 6/6/2 7/7/2 8/8/2 
s 8
f 1/9/3 4/10/3 6/11/3 5/12/3 
s 16
f 4/13/4 3/14/4 7/15/4 6/16/4 
s 32
f 3/17/5 2/18/5 8/19/5 7/20/5 
s 64
f 2/21/6 1/22/6 5/23/6 8/24/6 
# 6 polygons

