# 3ds Max Wavefront OBJ Exporter v0.97b - (c)2007 guruware
# File Created: 11.04.2017 19:19:31

mtllib 3.mtl

#
# object Box003
#

v  70.4089 7.9197 50.6124
v  70.4089 -21.4568 50.6124
v  130.1034 -21.4568 50.6124
v  130.1034 7.9197 50.6124
v  130.1034 -21.4567 18.9762
v  70.4089 -21.4567 18.9762
v  70.4089 7.9197 18.9762
v  130.1034 7.9197 18.9762
# 8 vertices

vn 0.0000 -0.0000 1.0000
vn 0.0000 0.0000 -1.0000
vn 0.0000 -1.0000 -0.0000
vn 1.0000 0.0000 -0.0000
vn 0.0000 1.0000 0.0000
vn -1.0000 0.0000 -0.0000
# 6 vertex normals

vt 0.9900 0.0100 0.0000
vt 0.9900 0.2455 0.0000
vt 0.5115 0.2455 0.0000
vt 0.5115 0.0100 0.0000
vt 0.0100 0.5632 0.0000
vt 0.4885 0.5632 0.0000
vt 0.4885 0.7986 0.0000
vt 0.0100 0.7986 0.0000
vt 0.0100 0.2866 0.0000
vt 0.4885 0.2866 0.0000
vt 0.4885 0.5402 0.0000
vt 0.0100 0.5402 0.0000
vt 0.7651 0.5632 0.0000
vt 0.7651 0.7986 0.0000
vt 0.5115 0.7986 0.0000
vt 0.5115 0.5632 0.0000
vt 0.0100 0.0100 0.0000
vt 0.4885 0.0100 0.0000
vt 0.4885 0.2636 0.0000
vt 0.0100 0.2636 0.0000
vt 0.7651 0.2866 0.0000
vt 0.7651 0.5221 0.0000
vt 0.5115 0.5221 0.0000
vt 0.5115 0.2866 0.0000
# 24 texture coords

g Box003
usemtl Material__39
s 2
f 1/1/1 2/2/1 3/3/1 4/4/1 
s 4
f 5/5/2 6/6/2 7/7/2 8/8/2 
s 8
f 3/9/3 2/10/3 6/11/3 5/12/3 
s 16
f 4/13/4 3/14/4 5/15/4 8/16/4 
s 32
f 1/17/5 4/18/5 8/19/5 7/20/5 
s 64
f 2/21/6 1/22/6 7/23/6 6/24/6 
# 6 polygons

