# 3ds Max Wavefront OBJ Exporter v0.97b - (c)2007 guruware
# File Created: 13.04.2017 19:51:36

mtllib 5.mtl

#
# object Box005
#

v  150.9540 -21.2059 -20.8504
v  150.9540 8.1706 -20.8504
v  168.6552 8.1706 -20.8504
v  168.6552 -21.2059 -20.8504
v  150.9540 -21.2059 50.3310
v  168.6552 -21.2059 50.3310
v  168.6552 8.1706 50.3310
v  150.9540 8.1706 50.3310
# 8 vertices

vn 0.0000 0.0000 -1.0000
vn 0.0000 -0.0000 1.0000
vn 0.0000 -1.0000 -0.0000
vn 1.0000 0.0000 -0.0000
vn 0.0000 1.0000 0.0000
vn -1.0000 0.0000 -0.0000
# 6 vertex normals

vt 0.9840 0.1757 0.0000
vt 0.7091 0.1757 0.0000
vt 0.7091 0.0100 0.0000
vt 0.9840 0.0100 0.0000
vt 0.7091 0.4835 0.0000
vt 0.7091 0.3179 0.0000
vt 0.9840 0.3179 0.0000
vt 0.9840 0.4835 0.0000
vt 0.0100 0.7914 0.0000
vt 0.0100 0.6257 0.0000
vt 0.6762 0.6257 0.0000
vt 0.6762 0.7914 0.0000
vt 0.0100 0.5928 0.0000
vt 0.0100 0.3179 0.0000
vt 0.6762 0.3179 0.0000
vt 0.6762 0.5928 0.0000
vt 0.0100 0.9900 0.0000
vt 0.0100 0.8243 0.0000
vt 0.6762 0.8243 0.0000
vt 0.6762 0.9900 0.0000
vt 0.0100 0.2849 0.0000
vt 0.0100 0.0100 0.0000
vt 0.6762 0.0100 0.0000
vt 0.6762 0.2849 0.0000
# 24 texture coords

g Box005
usemtl Material__55
s 2
f 1/1/1 2/2/1 3/3/1 4/4/1 
s 4
f 5/5/2 6/6/2 7/7/2 8/8/2 
s 8
f 1/9/3 4/10/3 6/11/3 5/12/3 
s 16
f 4/13/4 3/14/4 7/15/4 6/16/4 
s 32
f 3/17/5 2/18/5 8/19/5 7/20/5 
s 64
f 2/21/6 1/22/6 5/23/6 8/24/6 
# 6 polygons

