# 3ds Max Wavefront OBJ Exporter v0.97b - (c)2007 guruware
# File Created: 14.04.2017 19:07:34

mtllib 7.mtl

#
# object Box007
#

v  70.2847 -21.8190 7.9719
v  70.2847 -21.8190 -43.6926
v  131.0037 -21.8190 -43.6926
v  131.0037 -21.8190 7.9719
v  70.2847 4.8122 7.9719
v  131.0037 4.8122 7.9719
v  131.0037 4.8122 -43.6926
v  70.2847 4.8122 -43.6926
# 8 vertices

vn 0.0000 -1.0000 -0.0000
vn 0.0000 1.0000 -0.0000
vn 0.0000 0.0000 1.0000
vn 1.0000 0.0000 -0.0000
vn 0.0000 0.0000 -1.0000
vn -1.0000 0.0000 -0.0000
# 6 vertex normals

vt 0.0100 0.5088 0.0000
vt 0.4195 0.5088 0.0000
vt 0.4195 0.9900 0.0000
vt 0.0100 0.9900 0.0000
vt 0.4195 0.0058 0.0000
vt 0.4195 0.4870 0.0000
vt 0.0100 0.4870 0.0000
vt 0.0100 0.0058 0.0000
vt 0.6481 0.0058 0.0000
vt 0.6481 0.4870 0.0000
vt 0.4370 0.4870 0.0000
vt 0.4370 0.0058 0.0000
vt 0.8767 0.4370 0.0000
vt 0.8767 0.8465 0.0000
vt 0.6656 0.8465 0.0000
vt 0.6656 0.4370 0.0000
vt 0.6523 0.5046 0.0000
vt 0.6523 0.9858 0.0000
vt 0.4412 0.9858 0.0000
vt 0.4412 0.5046 0.0000
vt 0.8767 0.0100 0.0000
vt 0.8767 0.4195 0.0000
vt 0.6656 0.4195 0.0000
vt 0.6656 0.0100 0.0000
# 24 texture coords

g Box007
usemtl Material__57
s 2
f 1/1/1 2/2/1 3/3/1 4/4/1 
s 4
f 5/5/2 6/6/2 7/7/2 8/8/2 
s 8
f 1/9/3 4/10/3 6/11/3 5/12/3 
s 16
f 4/13/4 3/14/4 7/15/4 6/16/4 
s 32
f 3/17/5 2/18/5 8/19/5 7/20/5 
s 64
f 2/21/6 1/22/6 5/23/6 8/24/6 
# 6 polygons

