# 3ds Max Wavefront OBJ Exporter v0.97b - (c)2007 guruware
# File Created: 14.04.2017 20:03:43

mtllib 8.mtl

#
# object Box008
#

v  70.7158 -21.4424 -69.7054
v  70.7158 -21.4424 -102.7280
v  105.3363 -21.4424 -102.7280
v  105.3363 -21.4424 -69.7054
v  70.7158 24.3632 -69.7054
v  105.3363 24.3632 -69.7054
v  105.3363 24.3632 -102.7280
v  70.7158 24.3632 -102.7280
# 8 vertices

vn 0.0000 -1.0000 -0.0000
vn 0.0000 1.0000 -0.0000
vn 0.0000 0.0000 1.0000
vn 1.0000 0.0000 -0.0000
vn 0.0000 0.0000 -1.0000
vn -1.0000 0.0000 -0.0000
# 6 vertex normals

vt 0.3195 0.6948 0.0000
vt 0.3195 0.9900 0.0000
vt 0.0100 0.9900 0.0000
vt 0.0100 0.6948 0.0000
vt 0.7619 0.9757 0.0000
vt 0.4524 0.9757 0.0000
vt 0.4524 0.6805 0.0000
vt 0.7619 0.6805 0.0000
vt 0.0100 0.6619 0.0000
vt 0.0100 0.3524 0.0000
vt 0.4195 0.3524 0.0000
vt 0.4195 0.6619 0.0000
vt 0.4524 0.6476 0.0000
vt 0.4524 0.3524 0.0000
vt 0.8618 0.3524 0.0000
vt 0.8618 0.6476 0.0000
vt 0.0100 0.3195 0.0000
vt 0.0100 0.0100 0.0000
vt 0.4195 0.0100 0.0000
vt 0.4195 0.3195 0.0000
vt 0.4524 0.3052 0.0000
vt 0.4524 0.0100 0.0000
vt 0.8618 0.0100 0.0000
vt 0.8618 0.3052 0.0000
# 24 texture coords

g Box008
usemtl Material__58
s 2
f 1/1/1 2/2/1 3/3/1 4/4/1 
s 4
f 5/5/2 6/6/2 7/7/2 8/8/2 
s 8
f 1/9/3 4/10/3 6/11/3 5/12/3 
s 16
f 4/13/4 3/14/4 7/15/4 6/16/4 
s 32
f 3/17/5 2/18/5 8/19/5 7/20/5 
s 64
f 2/21/6 1/22/6 5/23/6 8/24/6 
# 6 polygons

