# 3ds Max Wavefront OBJ Exporter v0.97b - (c)2007 guruware
# File Created: 14.04.2017 20:03:54

mtllib 9.mtl

#
# object Cylinder001
#

v  123.5803 -21.0742 -87.5109
v  134.2902 -21.0742 -96.4975
v  136.7179 -21.0742 -92.2926
v  137.5610 -21.0742 -87.5109
v  126.0080 -21.0742 -101.2792
v  130.5707 -21.0742 -99.6186
v  116.5899 -21.0742 -99.6186
v  121.1526 -21.0742 -101.2792
v  110.4427 -21.0742 -92.2926
v  112.8704 -21.0742 -96.4975
v  110.4427 -21.0742 -82.7292
v  109.5996 -21.0742 -87.5109
v  116.5899 -21.0742 -75.4033
v  112.8704 -21.0742 -78.5243
v  126.0080 -21.0742 -73.7426
v  121.1526 -21.0742 -73.7426
v  134.2901 -21.0742 -78.5243
v  130.5706 -21.0742 -75.4032
v  136.7179 -21.0742 -82.7292
v  136.7179 -11.5936 -92.2926
v  137.5610 -11.5936 -87.5109
v  134.2902 -11.5936 -96.4975
v  130.5707 -11.5936 -99.6186
v  126.0080 -11.5936 -101.2792
v  121.1526 -11.5936 -101.2792
v  116.5899 -11.5936 -99.6186
v  112.8704 -11.5936 -96.4975
v  110.4427 -11.5936 -92.2926
v  109.5996 -11.5936 -87.5109
v  110.4427 -11.5936 -82.7292
v  112.8704 -11.5936 -78.5243
v  116.5899 -11.5936 -75.4033
v  121.1526 -11.5936 -73.7426
v  126.0080 -11.5936 -73.7426
v  130.5706 -11.5936 -75.4032
v  134.2901 -11.5936 -78.5243
v  136.7179 -11.5936 -82.7292
v  136.7179 -2.1129 -92.2926
v  137.5610 -2.1129 -87.5109
v  134.2902 -2.1129 -96.4975
v  130.5707 -2.1129 -99.6186
v  126.0080 -2.1129 -101.2792
v  121.1526 -2.1129 -101.2792
v  116.5899 -2.1129 -99.6186
v  112.8704 -2.1129 -96.4975
v  110.4427 -2.1129 -92.2926
v  109.5996 -2.1129 -87.5109
v  110.4427 -2.1129 -82.7292
v  112.8704 -2.1129 -78.5243
v  116.5899 -2.1129 -75.4033
v  121.1526 -2.1129 -73.7426
v  126.0080 -2.1129 -73.7426
v  130.5706 -2.1129 -75.4032
v  134.2901 -2.1129 -78.5243
v  136.7179 -2.1129 -82.7292
v  136.7179 7.3678 -92.2926
v  137.5610 7.3678 -87.5109
v  134.2902 7.3678 -96.4975
v  130.5707 7.3678 -99.6186
v  126.0080 7.3678 -101.2792
v  121.1526 7.3678 -101.2792
v  116.5899 7.3678 -99.6186
v  112.8704 7.3678 -96.4975
v  110.4427 7.3678 -92.2926
v  109.5996 7.3678 -87.5109
v  110.4427 7.3678 -82.7292
v  112.8704 7.3678 -78.5243
v  116.5899 7.3678 -75.4033
v  121.1526 7.3678 -73.7426
v  126.0080 7.3678 -73.7426
v  130.5706 7.3678 -75.4032
v  134.2901 7.3678 -78.5243
v  136.7179 7.3678 -82.7292
v  136.7179 16.8485 -92.2926
v  137.5610 16.8485 -87.5109
v  134.2902 16.8485 -96.4975
v  130.5707 16.8485 -99.6186
v  126.0080 16.8485 -101.2792
v  121.1526 16.8485 -101.2792
v  116.5899 16.8485 -99.6186
v  112.8704 16.8485 -96.4975
v  110.4427 16.8485 -92.2926
v  109.5996 16.8485 -87.5109
v  110.4427 16.8485 -82.7292
v  112.8704 16.8485 -78.5243
v  116.5899 16.8485 -75.4033
v  121.1526 16.8485 -73.7426
v  126.0080 16.8485 -73.7426
v  130.5706 16.8485 -75.4032
v  134.2901 16.8485 -78.5243
v  136.7179 16.8485 -82.7292
v  136.7179 26.3292 -92.2926
v  137.5610 26.3292 -87.5109
v  134.2902 26.3292 -96.4975
v  130.5707 26.3292 -99.6186
v  126.0080 26.3292 -101.2792
v  121.1526 26.3292 -101.2792
v  116.5899 26.3292 -99.6186
v  112.8704 26.3292 -96.4975
v  110.4427 26.3292 -92.2926
v  109.5996 26.3292 -87.5109
v  110.4427 26.3292 -82.7292
v  112.8704 26.3292 -78.5243
v  116.5899 26.3292 -75.4033
v  121.1526 26.3292 -73.7426
v  126.0080 26.3292 -73.7426
v  130.5706 26.3292 -75.4032
v  134.2901 26.3292 -78.5243
v  136.7179 26.3292 -82.7292
v  123.5803 26.3292 -87.5109
# 110 vertices

vn 0.0000 -1.0000 -0.0000
vn 1.0000 0.0000 0.0000
vn 0.9397 0.0000 -0.3420
vn 0.9397 -0.0000 -0.3420
vn 1.0000 -0.0000 0.0000
vn 0.7660 0.0000 -0.6428
vn 0.7660 -0.0000 -0.6428
vn 0.5000 0.0000 -0.8660
vn 0.5000 -0.0000 -0.8660
vn 0.1736 0.0000 -0.9848
vn 0.1736 -0.0000 -0.9848
vn -0.1736 0.0000 -0.9848
vn -0.1736 -0.0000 -0.9848
vn -0.5000 0.0000 -0.8660
vn -0.5000 -0.0000 -0.8660
vn -0.7660 0.0000 -0.6428
vn -0.7660 -0.0000 -0.6428
vn -0.9397 0.0000 -0.3420
vn -0.9397 -0.0000 -0.3420
vn -1.0000 0.0000 -0.0000
vn -1.0000 -0.0000 -0.0000
vn -0.9397 0.0000 0.3420
vn -0.9397 -0.0000 0.3420
vn -0.7660 0.0000 0.6428
vn -0.7660 -0.0000 0.6428
vn -0.5000 0.0000 0.8660
vn -0.5000 -0.0000 0.8660
vn -0.1736 0.0000 0.9848
vn -0.1736 -0.0000 0.9848
vn 0.1736 0.0000 0.9848
vn 0.1736 -0.0000 0.9848
vn 0.5000 0.0000 0.8660
vn 0.5000 -0.0000 0.8660
vn 0.7660 0.0000 0.6428
vn 0.7660 -0.0000 0.6428
vn 0.9397 0.0000 0.3420
vn 0.9397 -0.0000 0.3420
vn 0.0000 1.0000 -0.0000
# 38 vertex normals

vt 0.1502 0.8454 0.0000
vt 0.0428 0.9355 0.0000
vt 0.0185 0.8934 0.0000
vt 0.0100 0.8454 0.0000
vt 0.1259 0.9835 0.0000
vt 0.0801 0.9669 0.0000
vt 0.2203 0.9669 0.0000
vt 0.1746 0.9835 0.0000
vt 0.2820 0.8934 0.0000
vt 0.2576 0.9355 0.0000
vt 0.2820 0.7975 0.0000
vt 0.2904 0.8454 0.0000
vt 0.2203 0.7240 0.0000
vt 0.2576 0.7553 0.0000
vt 0.1259 0.7073 0.0000
vt 0.1746 0.7073 0.0000
vt 0.0428 0.7553 0.0000
vt 0.0801 0.7240 0.0000
vt 0.0185 0.7975 0.0000
vt 0.5146 0.1001 0.0000
vt 0.5146 0.0522 0.0000
vt 0.6097 0.0522 0.0000
vt 0.6097 0.1001 0.0000
vt 0.5146 0.0100 0.0000
vt 0.6097 0.0100 0.0000
vt 0.0100 0.2248 0.0000
vt 0.0100 0.1875 0.0000
vt 0.1051 0.1875 0.0000
vt 0.1051 0.2248 0.0000
vt 0.0100 0.1418 0.0000
vt 0.1051 0.1418 0.0000
vt 0.0100 0.0931 0.0000
vt 0.1051 0.0931 0.0000
vt 0.0100 0.0473 0.0000
vt 0.1051 0.0473 0.0000
vt 0.0100 0.0100 0.0000
vt 0.1051 0.0100 0.0000
vt 0.0100 0.6782 0.0000
vt 0.0100 0.6360 0.0000
vt 0.1051 0.6360 0.0000
vt 0.1051 0.6782 0.0000
vt 0.0100 0.5881 0.0000
vt 0.1051 0.5881 0.0000
vt 0.0100 0.5401 0.0000
vt 0.1051 0.5401 0.0000
vt 0.0100 0.4979 0.0000
vt 0.1051 0.4979 0.0000
vt 0.0100 0.4688 0.0000
vt 0.0100 0.4315 0.0000
vt 0.1051 0.4315 0.0000
vt 0.1051 0.4688 0.0000
vt 0.0100 0.3857 0.0000
vt 0.1051 0.3857 0.0000
vt 0.0100 0.3370 0.0000
vt 0.1051 0.3370 0.0000
vt 0.0100 0.2913 0.0000
vt 0.1051 0.2913 0.0000
vt 0.0100 0.2540 0.0000
vt 0.1051 0.2540 0.0000
vt 0.5146 0.1903 0.0000
vt 0.5146 0.1481 0.0000
vt 0.6097 0.1481 0.0000
vt 0.6097 0.1903 0.0000
vt 0.7047 0.0522 0.0000
vt 0.7047 0.1001 0.0000
vt 0.7047 0.0100 0.0000
vt 0.2002 0.1875 0.0000
vt 0.2002 0.2248 0.0000
vt 0.2002 0.1418 0.0000
vt 0.2002 0.0931 0.0000
vt 0.2002 0.0473 0.0000
vt 0.2002 0.0100 0.0000
vt 0.2002 0.6360 0.0000
vt 0.2002 0.6782 0.0000
vt 0.2002 0.5881 0.0000
vt 0.2002 0.5401 0.0000
vt 0.2002 0.4979 0.0000
vt 0.2002 0.4315 0.0000
vt 0.2002 0.4688 0.0000
vt 0.2002 0.3857 0.0000
vt 0.2002 0.3370 0.0000
vt 0.2002 0.2913 0.0000
vt 0.2002 0.2540 0.0000
vt 0.7047 0.1481 0.0000
vt 0.7047 0.1903 0.0000
vt 0.7998 0.0522 0.0000
vt 0.7998 0.1001 0.0000
vt 0.7998 0.0100 0.0000
vt 0.2953 0.1875 0.0000
vt 0.2953 0.2248 0.0000
vt 0.2953 0.1418 0.0000
vt 0.2953 0.0931 0.0000
vt 0.2953 0.0473 0.0000
vt 0.2953 0.0100 0.0000
vt 0.2953 0.6360 0.0000
vt 0.2953 0.6782 0.0000
vt 0.2953 0.5881 0.0000
vt 0.2953 0.5401 0.0000
vt 0.2953 0.4979 0.0000
vt 0.2953 0.4315 0.0000
vt 0.2953 0.4688 0.0000
vt 0.2953 0.3857 0.0000
vt 0.2953 0.3370 0.0000
vt 0.2953 0.2913 0.0000
vt 0.2953 0.2540 0.0000
vt 0.7998 0.1481 0.0000
vt 0.7998 0.1903 0.0000
vt 0.8949 0.0522 0.0000
vt 0.8949 0.1001 0.0000
vt 0.8949 0.0100 0.0000
vt 0.3903 0.1875 0.0000
vt 0.3903 0.2248 0.0000
vt 0.3903 0.1418 0.0000
vt 0.3903 0.0931 0.0000
vt 0.3903 0.0473 0.0000
vt 0.3903 0.0100 0.0000
vt 0.3903 0.6360 0.0000
vt 0.3903 0.6782 0.0000
vt 0.3903 0.5881 0.0000
vt 0.3903 0.5401 0.0000
vt 0.3903 0.4979 0.0000
vt 0.3903 0.4315 0.0000
vt 0.3903 0.4688 0.0000
vt 0.3903 0.3857 0.0000
vt 0.3903 0.3370 0.0000
vt 0.3903 0.2913 0.0000
vt 0.3903 0.2540 0.0000
vt 0.8949 0.1481 0.0000
vt 0.8949 0.1903 0.0000
vt 0.9900 0.0522 0.0000
vt 0.9900 0.1001 0.0000
vt 0.9900 0.0100 0.0000
vt 0.4854 0.1875 0.0000
vt 0.4854 0.2248 0.0000
vt 0.4854 0.1418 0.0000
vt 0.4854 0.0931 0.0000
vt 0.4854 0.0473 0.0000
vt 0.4854 0.0100 0.0000
vt 0.4854 0.6360 0.0000
vt 0.4854 0.6782 0.0000
vt 0.4854 0.5881 0.0000
vt 0.4854 0.5401 0.0000
vt 0.4854 0.4979 0.0000
vt 0.4854 0.4315 0.0000
vt 0.4854 0.4688 0.0000
vt 0.4854 0.3857 0.0000
vt 0.4854 0.3370 0.0000
vt 0.4854 0.2913 0.0000
vt 0.4854 0.2540 0.0000
vt 0.9900 0.1481 0.0000
vt 0.9900 0.1903 0.0000
vt 0.4525 0.8454 0.0000
vt 0.3207 0.8934 0.0000
vt 0.3123 0.8454 0.0000
vt 0.3207 0.7975 0.0000
vt 0.3451 0.7553 0.0000
vt 0.3824 0.7240 0.0000
vt 0.4282 0.7073 0.0000
vt 0.4769 0.7073 0.0000
vt 0.5226 0.7240 0.0000
vt 0.5599 0.7553 0.0000
vt 0.5843 0.7975 0.0000
vt 0.5927 0.8454 0.0000
vt 0.5843 0.8934 0.0000
vt 0.5599 0.9355 0.0000
vt 0.5226 0.9669 0.0000
vt 0.4769 0.9835 0.0000
vt 0.4282 0.9835 0.0000
vt 0.3824 0.9669 0.0000
vt 0.3451 0.9355 0.0000
# 170 texture coords

g Cylinder001
usemtl Material__59
s 1
f 1/1/1 2/2/1 3/3/1 4/4/1 
f 1/1/1 5/5/1 6/6/1 2/2/1 
f 1/1/1 7/7/1 8/8/1 5/5/1 
f 1/1/1 9/9/1 10/10/1 7/7/1 
f 1/1/1 11/11/1 12/12/1 9/9/1 
f 1/1/1 13/13/1 14/14/1 11/11/1 
f 1/1/1 15/15/1 16/16/1 13/13/1 
f 1/1/1 17/17/1 18/18/1 15/15/1 
f 1/1/1 4/4/1 19/19/1 17/17/1 
s 8
f 4/20/2 3/21/3 20/22/4 21/23/5 
f 3/21/3 2/24/6 22/25/7 20/22/4 
f 2/26/6 6/27/8 23/28/9 22/29/7 
f 6/27/8 5/30/10 24/31/11 23/28/9 
f 5/30/10 8/32/12 25/33/13 24/31/11 
f 8/32/12 7/34/14 26/35/15 25/33/13 
f 7/34/14 10/36/16 27/37/17 26/35/15 
f 10/38/16 9/39/18 28/40/19 27/41/17 
f 9/39/18 12/42/20 29/43/21 28/40/19 
f 12/42/20 11/44/22 30/45/23 29/43/21 
f 11/44/22 14/46/24 31/47/25 30/45/23 
f 14/48/24 13/49/26 32/50/27 31/51/25 
f 13/49/26 16/52/28 33/53/29 32/50/27 
f 16/52/28 15/54/30 34/55/31 33/53/29 
f 15/54/30 18/56/32 35/57/33 34/55/31 
f 18/56/32 17/58/34 36/59/35 35/57/33 
f 17/60/34 19/61/36 37/62/37 36/63/35 
f 19/61/36 4/20/2 21/23/5 37/62/37 
f 21/23/5 20/22/4 38/64/4 39/65/5 
f 20/22/4 22/25/7 40/66/7 38/64/4 
f 22/29/7 23/28/9 41/67/9 40/68/7 
f 23/28/9 24/31/11 42/69/11 41/67/9 
f 24/31/11 25/33/13 43/70/13 42/69/11 
f 25/33/13 26/35/15 44/71/15 43/70/13 
f 26/35/15 27/37/17 45/72/17 44/71/15 
f 27/41/17 28/40/19 46/73/19 45/74/17 
f 28/40/19 29/43/21 47/75/21 46/73/19 
f 29/43/21 30/45/23 48/76/23 47/75/21 
f 30/45/23 31/47/25 49/77/25 48/76/23 
f 31/51/25 32/50/27 50/78/27 49/79/25 
f 32/50/27 33/53/29 51/80/29 50/78/27 
f 33/53/29 34/55/31 52/81/31 51/80/29 
f 34/55/31 35/57/33 53/82/33 52/81/31 
f 35/57/33 36/59/35 54/83/35 53/82/33 
f 36/63/35 37/62/37 55/84/37 54/85/35 
f 37/62/37 21/23/5 39/65/5 55/84/37 
f 39/65/5 38/64/4 56/86/3 57/87/2 
f 38/64/4 40/66/7 58/88/6 56/86/3 
f 40/68/7 41/67/9 59/89/8 58/90/6 
f 41/67/9 42/69/11 60/91/10 59/89/8 
f 42/69/11 43/70/13 61/92/12 60/91/10 
f 43/70/13 44/71/15 62/93/14 61/92/12 
f 44/71/15 45/72/17 63/94/16 62/93/14 
f 45/74/17 46/73/19 64/95/18 63/96/16 
f 46/73/19 47/75/21 65/97/20 64/95/18 
f 47/75/21 48/76/23 66/98/22 65/97/20 
f 48/76/23 49/77/25 67/99/24 66/98/22 
f 49/79/25 50/78/27 68/100/26 67/101/24 
f 50/78/27 51/80/29 69/102/28 68/100/26 
f 51/80/29 52/81/31 70/103/30 69/102/28 
f 52/81/31 53/82/33 71/104/32 70/103/30 
f 53/82/33 54/83/35 72/105/34 71/104/32 
f 54/85/35 55/84/37 73/106/36 72/107/34 
f 55/84/37 39/65/5 57/87/2 73/106/36 
f 57/87/2 56/86/3 74/108/3 75/109/2 
f 56/86/3 58/88/6 76/110/6 74/108/3 
f 58/90/6 59/89/8 77/111/8 76/112/6 
f 59/89/8 60/91/10 78/113/10 77/111/8 
f 60/91/10 61/92/12 79/114/12 78/113/10 
f 61/92/12 62/93/14 80/115/14 79/114/12 
f 62/93/14 63/94/16 81/116/16 80/115/14 
f 63/96/16 64/95/18 82/117/18 81/118/16 
f 64/95/18 65/97/20 83/119/20 82/117/18 
f 65/97/20 66/98/22 84/120/22 83/119/20 
f 66/98/22 67/99/24 85/121/24 84/120/22 
f 67/101/24 68/100/26 86/122/26 85/123/24 
f 68/100/26 69/102/28 87/124/28 86/122/26 
f 69/102/28 70/103/30 88/125/30 87/124/28 
f 70/103/30 71/104/32 89/126/32 88/125/30 
f 71/104/32 72/105/34 90/127/34 89/126/32 
f 72/107/34 73/106/36 91/128/36 90/129/34 
f 73/106/36 57/87/2 75/109/2 91/128/36 
f 75/109/2 74/108/3 92/130/3 93/131/2 
f 74/108/3 76/110/6 94/132/6 92/130/3 
f 76/112/6 77/111/8 95/133/8 94/134/6 
f 77/111/8 78/113/10 96/135/10 95/133/8 
f 78/113/10 79/114/12 97/136/12 96/135/10 
f 79/114/12 80/115/14 98/137/14 97/136/12 
f 80/115/14 81/116/16 99/138/16 98/137/14 
f 81/118/16 82/117/18 100/139/18 99/140/16 
f 82/117/18 83/119/20 101/141/20 100/139/18 
f 83/119/20 84/120/22 102/142/22 101/141/20 
f 84/120/22 85/121/24 103/143/24 102/142/22 
f 85/123/24 86/122/26 104/144/26 103/145/24 
f 86/122/26 87/124/28 105/146/28 104/144/26 
f 87/124/28 88/125/30 106/147/30 105/146/28 
f 88/125/30 89/126/32 107/148/32 106/147/30 
f 89/126/32 90/127/34 108/149/34 107/148/32 
f 90/129/34 91/128/36 109/150/36 108/151/34 
f 91/128/36 75/109/2 93/131/2 109/150/36 
s 1
f 110/152/38 109/153/38 93/154/38 92/155/38 
f 110/152/38 92/155/38 94/156/38 95/157/38 
f 110/152/38 95/157/38 96/158/38 97/159/38 
f 110/152/38 97/159/38 98/160/38 99/161/38 
f 110/152/38 99/161/38 100/162/38 101/163/38 
f 110/152/38 101/163/38 102/164/38 103/165/38 
f 110/152/38 103/165/38 104/166/38 105/167/38 
f 110/152/38 105/167/38 106/168/38 107/169/38 
f 110/152/38 107/169/38 108/170/38 109/153/38 
# 108 polygons

